# Blender v2.68 (sub 0) OBJ File: 'blackpawn.blend'
# www.blender.org
mtllib blackpawn.mtl
o Cube
v 0.529287 0.018919 1.863663
v 0.360383 1.032646 1.108735
v 0.314756 1.922265 0.890434
v 0.553153 3.013457 1.897112
v 0.101485 3.038906 -0.058983
v 0.081522 0.060882 -0.075923
v 0.529287 0.018919 1.863663
v 0.859344 0.017487 1.756387
v 0.560082 1.031780 1.043828
v 0.475626 1.921567 0.838147
v 0.883210 3.012025 1.789835
v 0.098715 3.038918 -0.058082
v 0.081528 0.060882 -0.075925
v 0.859344 0.017487 1.756387
v 1.165763 0.016865 1.593430
v 0.745479 1.031404 0.945232
v 0.624975 1.921264 0.758722
v 1.189628 3.011404 1.626878
v 0.096142 3.038923 -0.056714
v 0.081534 0.060882 -0.075928
v 1.165763 0.016865 1.593430
v 1.439233 0.017072 1.379744
v 0.910940 1.031529 0.815943
v 0.758265 1.921365 0.654571
v 1.463098 3.011611 1.413193
v 0.093846 3.038921 -0.054921
v 0.081539 0.060882 -0.075932
v 1.439233 0.017072 1.379744
v 1.671445 0.018103 1.121822
v 1.051439 1.032152 0.659889
v 0.871446 1.921867 0.528860
v 1.695311 3.012641 1.155270
v 0.091897 3.038912 -0.052755
v 0.081543 0.060882 -0.075937
v 1.671445 0.018103 1.121822
v 1.855345 0.019925 0.827500
v 1.162706 1.033255 0.481811
v 0.961078 1.922755 0.385407
v 1.879210 3.014463 0.860948
v 0.090353 3.038897 -0.050285
v 0.081546 0.060882 -0.075943
v 1.855345 0.019925 0.827500
v 1.985343 0.022483 0.505721
v 1.241361 1.034802 0.287121
v 1.024439 1.924002 0.228572
v 2.009209 3.017021 0.539169
v 0.089261 3.038876 -0.047583
v 0.081549 0.060882 -0.075949
v 1.985343 0.022483 0.505721
v 2.057490 0.025699 0.166263
v 1.285013 1.036749 0.081733
v 1.059604 1.925569 0.063119
v 2.081356 3.020237 0.199710
v 0.088656 3.038849 -0.044734
v 0.081550 0.060882 -0.075955
v 2.057490 0.025699 0.166263
v 2.069594 0.029477 -0.180561
v 1.292336 1.039034 -0.128110
v 1.065503 1.927410 -0.105923
v 2.093460 3.024015 -0.147114
v 0.088554 3.038817 -0.041822
v 0.081550 0.060882 -0.075961
v 2.069594 0.029477 -0.180561
v 2.021288 0.033700 -0.524212
v 1.263109 1.041589 -0.336034
v 1.041958 1.929469 -0.273419
v 2.045153 3.028239 -0.490765
v 0.088960 3.038782 -0.038937
v 0.081550 0.060882 -0.075968
v 2.021288 0.033700 -0.524212
v 1.914038 0.038241 -0.854249
v 1.198218 1.044337 -0.535721
v 0.989685 1.931682 -0.434279
v 1.937903 3.032780 -0.820802
v 0.089860 3.038743 -0.036166
v 0.081548 0.060882 -0.075974
v 1.914038 0.038241 -0.854249
v 1.751104 0.042962 -1.160644
v 1.099636 1.047193 -0.721103
v 0.910271 1.933983 -0.583617
v 1.774969 3.037500 -1.127197
v 0.091228 3.038704 -0.033594
v 0.081545 0.060882 -0.075979
v 1.751104 0.042962 -1.160644
v 1.537436 0.047719 -1.434087
v 0.970357 1.050071 -0.886548
v 0.806129 1.936302 -0.716893
v 1.561300 3.042258 -1.400640
v 0.093021 3.038664 -0.031298
v 0.081541 0.060882 -0.075985
v 1.537436 0.047719 -1.434087
v 1.279526 0.052368 -1.666270
v 0.814311 1.052884 -1.027029
v 0.680423 1.938568 -0.830059
v 1.303391 3.046906 -1.632822
v 0.095186 3.038625 -0.029349
v 0.081536 0.060882 -0.075989
v 1.279526 0.052368 -1.666270
v 0.985211 0.056767 -1.850137
v 0.636237 1.055546 -1.138277
v 0.536974 1.940712 -0.919676
v 1.009076 3.051306 -1.816690
v 0.097657 3.038588 -0.027806
v 0.081530 0.060882 -0.075992
v 0.985211 0.056767 -1.850137
v 0.663435 0.060783 -1.980102
v 0.441548 1.057976 -1.216911
v 0.380139 1.942670 -0.983021
v 0.687299 3.055322 -1.946655
v 0.100358 3.038554 -0.026714
v 0.081524 0.060882 -0.075995
v 0.663435 0.060783 -1.980102
v 0.323972 0.064294 -2.052217
v 0.236158 1.060100 -1.260544
v 0.214685 1.944380 -1.018170
v 0.347836 3.058832 -2.018770
v 0.103208 3.038525 -0.026109
v 0.081518 0.060882 -0.075996
v 0.323972 0.064294 -2.052217
v -0.022861 0.067193 -2.064290
v 0.026309 1.061854 -1.267848
v 0.045638 1.945794 -1.024054
v 0.001003 3.061732 -2.030843
v 0.106120 3.038501 -0.026007
v 0.081512 0.060883 -0.075996
v -0.022861 0.067193 -2.064290
v -0.366527 0.069392 -2.015954
v -0.181624 1.063185 -1.238603
v -0.121865 1.946865 -1.000495
v -0.342663 3.063931 -1.982506
v 0.109005 3.038482 -0.026413
v 0.081505 0.060883 -0.075995
v -0.366527 0.069392 -2.015954
v -0.696584 0.070824 -1.908678
v -0.381323 1.064051 -1.173696
v -0.282735 1.947563 -0.948208
v -0.672720 3.065362 -1.875230
v 0.111776 3.038470 -0.027314
v 0.081499 0.060883 -0.075993
v -0.696584 0.070824 -1.908678
v -1.003002 0.071446 -1.745721
v -0.566719 1.064427 -1.075100
v -0.432084 1.947866 -0.868783
v -0.979139 3.065985 -1.712273
v 0.114348 3.038465 -0.028682
v 0.081493 0.060883 -0.075990
v -1.003002 0.071446 -1.745721
v -1.276472 0.071238 -1.532035
v -0.732181 1.064302 -0.945811
v -0.565373 1.947765 -0.764632
v -1.252609 3.065777 -1.498587
v 0.116644 3.038466 -0.030476
v 0.081488 0.060883 -0.075986
v -1.276472 0.071238 -1.532035
v -1.508685 0.070208 -1.274113
v -0.872679 1.063679 -0.789757
v -0.678554 1.947263 -0.638921
v -1.484821 3.064747 -1.240665
v 0.118594 3.038475 -0.032641
v 0.081484 0.060883 -0.075981
v -1.508685 0.070208 -1.274113
v -1.692584 0.068386 -0.979791
v -0.983946 1.062576 -0.611679
v -0.768186 1.946375 -0.495468
v -1.668720 3.062925 -0.946343
v 0.120137 3.038491 -0.035112
v 0.081481 0.060882 -0.075976
v -1.692584 0.068386 -0.979791
v -1.822582 0.065828 -0.658012
v -1.062601 1.061028 -0.416989
v -0.831547 1.945128 -0.338633
v -1.798718 3.060367 -0.624564
v 0.121229 3.038512 -0.037813
v 0.081478 0.060882 -0.075970
v -1.822582 0.065828 -0.658012
v -1.894729 0.062611 -0.318554
v -1.106253 1.059082 -0.211602
v -0.866712 1.943561 -0.173180
v -1.870865 3.057150 -0.285105
v 0.121835 3.038539 -0.040663
v 0.081477 0.060882 -0.075964
v -1.894729 0.062611 -0.318554
v -1.906832 0.058834 0.028270
v -1.113577 1.056797 -0.001758
v -0.872611 1.941719 -0.004138
v -1.882969 3.053373 0.061718
v 0.121936 3.038570 -0.043574
v 0.081477 0.060882 -0.075957
v -1.906832 0.058834 0.028270
v -1.858526 0.054611 0.371921
v -1.084349 1.054241 0.206166
v -0.849066 1.939661 0.163358
v -1.834662 3.049150 0.405370
v 0.121531 3.038606 -0.046459
v 0.081478 0.060882 -0.075951
v -1.858526 0.054611 0.371921
v -1.751276 0.050069 0.701957
v -1.019458 1.051494 0.405852
v -0.796793 1.937448 0.324218
v -1.727412 3.044608 0.735407
v 0.120631 3.038644 -0.049230
v 0.081480 0.060882 -0.075945
v -1.751276 0.050069 0.701957
v -1.588342 0.045349 1.008352
v -0.920875 1.048638 0.591235
v -0.717378 1.935147 0.473555
v -1.564478 3.039887 1.041802
v 0.119263 3.038684 -0.051802
v 0.081483 0.060882 -0.075939
v -1.588342 0.045349 1.008352
v -1.374673 0.040592 1.281795
v -0.791597 1.045759 0.756680
v -0.613236 1.932828 0.606831
v -1.350809 3.035131 1.315244
v 0.117469 3.038724 -0.054098
v 0.081487 0.060882 -0.075934
v -1.374673 0.040592 1.281795
v -1.116764 0.035943 1.513977
v -0.635551 1.042947 0.897160
v -0.487531 1.930562 0.719997
v -1.092899 3.030481 1.547427
v 0.115304 3.038763 -0.056047
v 0.081491 0.060882 -0.075930
v -1.116764 0.035943 1.513977
v -0.822450 0.031544 1.697844
v -0.457477 1.040285 1.008408
v -0.344082 1.928418 0.809614
v -0.798585 3.026083 1.731293
v 0.112833 3.038800 -0.057591
v 0.081497 0.060882 -0.075926
v -0.822450 0.031544 1.697844
v -0.500673 0.027528 1.827809
v -0.262788 1.037855 1.087042
v -0.187247 1.926461 0.872959
v -0.476808 3.022066 1.861259
v 0.110132 3.038834 -0.058682
v 0.081503 0.060882 -0.075924
v -0.500673 0.027528 1.827809
v -0.161211 0.024017 1.899924
v -0.057399 1.035731 1.130675
v -0.021793 1.924750 0.908108
v -0.137345 3.018555 1.933372
v 0.107282 3.038863 -0.059287
v 0.081509 0.060882 -0.075923
v -0.161211 0.024017 1.899924
v 0.185622 0.021118 1.911996
v 0.152451 1.033977 1.137980
v 0.147254 1.923337 0.913992
v 0.209488 3.015656 1.945445
v 0.104370 3.038887 -0.059389
v 0.081516 0.060882 -0.075922
v 0.185622 0.021118 1.911996
v 0.529288 0.018919 1.863660
v 0.360384 1.032646 1.108734
v 0.314757 1.922265 0.890433
v 0.553154 3.013457 1.897110
v 0.101485 3.038906 -0.058983
v 0.081522 0.060882 -0.075923
v 0.529288 0.018919 1.863660
vn 0.221943 -0.686912 0.692021
vn -0.010574 -0.999760 -0.019189
vn 0.300882 0.241801 0.922498
vn 0.309066 -0.007482 0.951011
vn 0.248529 0.604835 0.756576
vn 0.007968 0.999906 0.011169
vn 0.339978 -0.687292 0.641907
vn -0.011928 -0.999756 -0.018614
vn 0.456048 0.241300 0.856618
vn 0.469481 -0.007999 0.882906
vn 0.375021 0.604427 0.702871
vn 0.490267 0.604345 0.628018
vn 0.007970 0.999906 0.011168
vn 0.447519 -0.687369 0.572058
vn -0.013161 -0.999755 -0.017813
vn 0.597419 0.241199 0.764796
vn 0.615695 -0.008104 0.787943
vn 0.720699 0.241501 0.649823
vn 0.743145 -0.007792 0.669085
vn 0.590764 0.604591 0.534292
vn 0.007969 0.999906 0.011168
vn 0.541299 -0.687140 0.484597
vn -0.014236 -0.999757 -0.016810
vn -0.015120 -0.999763 -0.015637
vn 0.822142 0.242196 0.515193
vn 0.848054 -0.007073 0.529863
vn 0.673461 0.605157 0.424540
vn 0.618468 -0.686611 0.382182
vn 0.676680 -0.685798 0.267926
vn -0.015788 -0.999773 -0.014326
vn 0.898667 0.243264 0.364995
vn 0.927181 -0.005969 0.374567
vn 0.735844 0.606028 0.302099
vn 0.007969 0.999906 0.011169
vn 0.714168 -0.684728 0.145298
vn -0.016218 -0.999785 -0.012921
vn 0.947948 0.244672 0.203791
vn 0.978145 -0.004513 0.207875
vn 0.776018 0.607176 0.170685
vn 0.792762 0.608566 0.034295
vn 0.729793 -0.683430 0.018025
vn -0.016397 -0.999800 -0.011462
vn 0.968487 0.246377 0.036482
vn 0.999388 -0.002750 0.034863
vn 0.990268 -0.000733 -0.139172
vn 0.785567 0.610156 -0.102928
vn 0.723079 -0.681947 -0.110024
vn -0.016320 -0.999817 -0.009993
vn 0.959661 0.248327 -0.131847
vn 0.921738 0.250464 -0.296084
vn 0.951056 0.001476 -0.309014
vn 0.754652 0.611898 -0.236815
vn 0.694231 -0.680321 -0.234960
vn -0.015989 -0.999835 -0.008561
vn -0.015415 -0.999855 -0.007208
vn 0.855871 0.252722 -0.451239
vn 0.882954 0.003811 -0.469444
vn 0.700957 0.613738 -0.363297
vn 0.644125 -0.678604 -0.352987
vn 0.574283 -0.676846 -0.460520
vn -0.014614 -0.999875 -0.005976
vn 0.764059 0.255033 -0.592598
vn 0.788011 0.006200 -0.615630
vn 0.626112 0.615622 -0.478533
vn 0.007968 0.999906 0.011168
vn 0.486829 -0.675102 -0.554288
vn -0.013611 -0.999895 -0.004900
vn 0.649093 0.257326 -0.715864
vn 0.669146 0.008571 -0.743082
vn 0.532391 0.617491 -0.579020
vn 0.422644 0.619289 -0.661705
vn 0.384417 -0.673424 -0.631446
vn -0.012438 -0.999915 -0.004016
vn 0.514467 0.259532 -0.817292
vn 0.529952 0.010852 -0.847958
vn 0.374621 0.012974 -0.927087
vn 0.300204 0.620962 -0.724075
vn 0.270162 -0.671863 -0.689647
vn -0.011128 -0.999933 -0.003349
vn 0.364270 0.261583 -0.893802
vn 0.203067 0.263418 -0.943067
vn 0.207939 0.014871 -0.978029
vn 0.168790 0.622458 -0.764236
vn 0.007967 0.999906 0.011168
vn 0.147534 -0.670467 -0.727123
vn -0.009721 -0.999949 -0.002919
vn 0.020259 -0.669278 -0.742735
vn -0.008263 -0.999962 -0.002740
vn 0.035756 0.264981 -0.963591
vn 0.034982 0.016487 -0.999252
vn 0.032398 0.623731 -0.780967
vn 0.007970 0.999906 0.011169
vn -0.107795 -0.668333 -0.736010
vn -0.006793 -0.999973 -0.002817
vn -0.132580 0.266224 -0.954750
vn -0.139177 0.017772 -0.990108
vn -0.104830 0.624744 -0.773760
vn 0.007967 0.999906 0.011169
vn -0.232737 -0.667660 -0.707152
vn -0.005363 -0.999981 -0.003148
vn -0.296826 0.267109 -0.916813
vn -0.308935 0.018687 -0.950899
vn -0.238724 0.625466 -0.742835
vn -0.365217 0.625874 -0.689129
vn -0.350774 -0.667279 -0.657036
vn -0.004008 -0.999985 -0.003723
vn -0.451993 0.267609 -0.850933
vn -0.469394 0.019205 -0.882780
vn -0.593363 0.267710 -0.759112
vn -0.615574 0.019310 -0.787842
vn -0.480461 0.625957 -0.614276
vn -0.458315 -0.667202 -0.587188
vn -0.002777 -0.999986 -0.004523
vn -0.001701 -0.999983 -0.005526
vn -0.716643 0.267409 -0.644139
vn -0.743064 0.018998 -0.668951
vn -0.580960 0.625710 -0.520550
vn -0.552095 -0.667431 -0.499727
vn -0.629263 -0.667960 -0.397313
vn -0.000816 -0.999977 -0.006700
vn -0.818087 0.266713 -0.509508
vn -0.847964 0.018279 -0.529738
vn -0.663657 0.625144 -0.410798
vn -0.687476 -0.668773 -0.283055
vn -0.000149 -0.999968 -0.008010
vn -0.894611 0.265646 -0.359309
vn -0.927103 0.017175 -0.374414
vn -0.726040 0.624273 -0.288356
vn -0.766214 0.623126 -0.156943
vn -0.724964 -0.669843 -0.160428
vn 0.000281 -0.999956 -0.009415
vn -0.943892 0.264238 -0.198107
vn -0.978053 0.015719 -0.207762
vn -0.999299 0.013956 -0.034748
vn -0.782958 0.621735 -0.020552
vn -0.740588 -0.671140 -0.033156
vn 0.000460 -0.999941 -0.010875
vn -0.964432 0.262533 -0.030798
vn -0.955606 0.260582 0.137531
vn -0.990175 0.011939 0.139322
vn -0.775763 0.620145 0.116669
vn 0.007969 0.999906 0.011167
vn -0.733874 -0.672624 0.094894
vn 0.000383 -0.999924 -0.012343
vn 0.000052 -0.999905 -0.013775
vn -0.917683 0.258446 0.301769
vn -0.950969 0.009730 0.309134
vn -0.744848 0.618403 0.250558
vn -0.705026 -0.674250 0.219831
vn -0.654920 -0.675968 0.337858
vn -0.000522 -0.999885 -0.015128
vn -0.851814 0.256188 0.456926
vn -0.882862 0.007395 0.469575
vn -0.691152 0.616563 0.377040
vn -0.585078 -0.677725 0.445390
vn -0.001323 -0.999865 -0.016362
vn -0.760003 0.253877 0.598282
vn -0.787933 0.005006 0.615741
vn -0.616307 0.614679 0.492276
vn -0.522587 0.612810 0.592762
vn -0.497624 -0.679470 0.539158
vn -0.002325 -0.999845 -0.017436
vn -0.645037 0.251584 0.721549
vn -0.669065 0.002635 0.743200
vn -0.529822 0.000353 0.848109
vn -0.412839 0.611012 0.675447
vn -0.395212 -0.681147 0.616316
vn -0.003500 -0.999826 -0.018321
vn -0.510411 0.249378 0.822977
vn -0.360214 0.247327 0.899486
vn -0.374550 -0.001768 0.927205
vn -0.290398 0.609339 0.737818
vn -0.280957 -0.682708 0.674517
vn -0.004809 -0.999808 -0.018988
vn -0.158328 -0.684104 0.711993
vn -0.006215 -0.999792 -0.019417
vn -0.199012 0.245492 0.948751
vn -0.207879 -0.003665 0.978148
vn -0.158986 0.607843 0.777978
vn -0.031054 -0.685292 0.727606
vn -0.007674 -0.999779 -0.019596
vn -0.031700 0.243929 0.969275
vn -0.034855 -0.005281 0.999378
vn -0.022593 0.606569 0.794710
vn 0.096999 -0.686238 0.720880
vn -0.009143 -0.999768 -0.019519
vn 0.136636 0.242687 0.960434
vn 0.139186 -0.006566 0.990244
vn 0.114635 0.605556 0.787503
usemtl Material
s off
f 3//1 10//1 11//1 4//1
f 6//2 13//2 14//2 7//2
f 2//3 9//3 10//3 3//3
f 5//4 12//4 13//4 6//4
f 1//5 8//5 9//5 2//5
f 4//6 11//6 12//6 5//6
f 11//6 18//6 19//6 12//6
f 10//7 17//7 18//7 11//7
f 13//8 20//8 21//8 14//8
f 9//9 16//9 17//9 10//9
f 12//10 19//10 20//10 13//10
f 8//11 15//11 16//11 9//11
f 15//12 22//12 23//12 16//12
f 18//13 25//13 26//13 19//13
f 17//14 24//14 25//14 18//14
f 20//15 27//15 28//15 21//15
f 16//16 23//16 24//16 17//16
f 19//17 26//17 27//17 20//17
f 23//18 30//18 31//18 24//18
f 26//19 33//19 34//19 27//19
f 22//20 29//20 30//20 23//20
f 25//21 32//21 33//21 26//21
f 24//22 31//22 32//22 25//22
f 27//23 34//23 35//23 28//23
f 34//24 41//24 42//24 35//24
f 30//25 37//25 38//25 31//25
f 33//26 40//26 41//26 34//26
f 29//27 36//27 37//27 30//27
f 32//6 39//6 40//6 33//6
f 31//28 38//28 39//28 32//28
f 38//29 45//29 46//29 39//29
f 41//30 48//30 49//30 42//30
f 37//31 44//31 45//31 38//31
f 40//32 47//32 48//32 41//32
f 36//33 43//33 44//33 37//33
f 39//34 46//34 47//34 40//34
f 45//35 52//35 53//35 46//35
f 48//36 55//36 56//36 49//36
f 44//37 51//37 52//37 45//37
f 47//38 54//38 55//38 48//38
f 43//39 50//39 51//39 44//39
f 46//21 53//21 54//21 47//21
f 50//40 57//40 58//40 51//40
f 53//34 60//34 61//34 54//34
f 52//41 59//41 60//41 53//41
f 55//42 62//42 63//42 56//42
f 51//43 58//43 59//43 52//43
f 54//44 61//44 62//44 55//44
f 61//45 68//45 69//45 62//45
f 57//46 64//46 65//46 58//46
f 60//21 67//21 68//21 61//21
f 59//47 66//47 67//47 60//47
f 62//48 69//48 70//48 63//48
f 58//49 65//49 66//49 59//49
f 65//50 72//50 73//50 66//50
f 68//51 75//51 76//51 69//51
f 64//52 71//52 72//52 65//52
f 67//34 74//34 75//34 68//34
f 66//53 73//53 74//53 67//53
f 69//54 76//54 77//54 70//54
f 76//55 83//55 84//55 77//55
f 72//56 79//56 80//56 73//56
f 75//57 82//57 83//57 76//57
f 71//58 78//58 79//58 72//58
f 74//21 81//21 82//21 75//21
f 73//59 80//59 81//59 74//59
f 80//60 87//60 88//60 81//60
f 83//61 90//61 91//61 84//61
f 79//62 86//62 87//62 80//62
f 82//63 89//63 90//63 83//63
f 78//64 85//64 86//64 79//64
f 81//34 88//34 89//34 82//34
f 88//65 95//65 96//65 89//65
f 87//66 94//66 95//66 88//66
f 90//67 97//67 98//67 91//67
f 86//68 93//68 94//68 87//68
f 89//69 96//69 97//69 90//69
f 85//70 92//70 93//70 86//70
f 92//71 99//71 100//71 93//71
f 95//34 102//34 103//34 96//34
f 94//72 101//72 102//72 95//72
f 97//73 104//73 105//73 98//73
f 93//74 100//74 101//74 94//74
f 96//75 103//75 104//75 97//75
f 103//76 110//76 111//76 104//76
f 99//77 106//77 107//77 100//77
f 102//34 109//34 110//34 103//34
f 101//78 108//78 109//78 102//78
f 104//79 111//79 112//79 105//79
f 100//80 107//80 108//80 101//80
f 107//81 114//81 115//81 108//81
f 110//82 117//82 118//82 111//82
f 106//83 113//83 114//83 107//83
f 109//84 116//84 117//84 110//84
f 108//85 115//85 116//85 109//85
f 111//86 118//86 119//86 112//86
f 115//87 122//87 123//87 116//87
f 118//88 125//88 126//88 119//88
f 114//89 121//89 122//89 115//89
f 117//90 124//90 125//90 118//90
f 113//91 120//91 121//91 114//91
f 116//92 123//92 124//92 117//92
f 122//93 129//93 130//93 123//93
f 125//94 132//94 133//94 126//94
f 121//95 128//95 129//95 122//95
f 124//96 131//96 132//96 125//96
f 120//97 127//97 128//97 121//97
f 123//34 130//34 131//34 124//34
f 130//98 137//98 138//98 131//98
f 129//99 136//99 137//99 130//99
f 132//100 139//100 140//100 133//100
f 128//101 135//101 136//101 129//101
f 131//102 138//102 139//102 132//102
f 127//103 134//103 135//103 128//103
f 134//104 141//104 142//104 135//104
f 137//13 144//13 145//13 138//13
f 136//105 143//105 144//105 137//105
f 139//106 146//106 147//106 140//106
f 135//107 142//107 143//107 136//107
f 138//108 145//108 146//108 139//108
f 142//109 149//109 150//109 143//109
f 145//110 152//110 153//110 146//110
f 141//111 148//111 149//111 142//111
f 144//6 151//6 152//6 145//6
f 143//112 150//112 151//112 144//112
f 146//113 153//113 154//113 147//113
f 153//114 160//114 161//114 154//114
f 149//115 156//115 157//115 150//115
f 152//116 159//116 160//116 153//116
f 148//117 155//117 156//117 149//117
f 151//34 158//34 159//34 152//34
f 150//118 157//118 158//118 151//118
f 157//119 164//119 165//119 158//119
f 160//120 167//120 168//120 161//120
f 156//121 163//121 164//121 157//121
f 159//122 166//122 167//122 160//122
f 155//123 162//123 163//123 156//123
f 158//21 165//21 166//21 159//21
f 164//124 171//124 172//124 165//124
f 167//125 174//125 175//125 168//125
f 163//126 170//126 171//126 164//126
f 166//127 173//127 174//127 167//127
f 162//128 169//128 170//128 163//128
f 165//21 172//21 173//21 166//21
f 169//129 176//129 177//129 170//129
f 172//34 179//34 180//34 173//34
f 171//130 178//130 179//130 172//130
f 174//131 181//131 182//131 175//131
f 170//132 177//132 178//132 171//132
f 173//133 180//133 181//133 174//133
f 180//134 187//134 188//134 181//134
f 176//135 183//135 184//135 177//135
f 179//34 186//34 187//34 180//34
f 178//136 185//136 186//136 179//136
f 181//137 188//137 189//137 182//137
f 177//138 184//138 185//138 178//138
f 184//139 191//139 192//139 185//139
f 187//140 194//140 195//140 188//140
f 183//141 190//141 191//141 184//141
f 186//142 193//142 194//142 187//142
f 185//143 192//143 193//143 186//143
f 188//144 195//144 196//144 189//144
f 195//145 202//145 203//145 196//145
f 191//146 198//146 199//146 192//146
f 194//147 201//147 202//147 195//147
f 190//148 197//148 198//148 191//148
f 193//34 200//34 201//34 194//34
f 192//149 199//149 200//149 193//149
f 199//150 206//150 207//150 200//150
f 202//151 209//151 210//151 203//151
f 198//152 205//152 206//152 199//152
f 201//153 208//153 209//153 202//153
f 197//154 204//154 205//154 198//154
f 200//21 207//21 208//21 201//21
f 207//65 214//65 215//65 208//65
f 206//155 213//155 214//155 207//155
f 209//156 216//156 217//156 210//156
f 205//157 212//157 213//157 206//157
f 208//158 215//158 216//158 209//158
f 204//159 211//159 212//159 205//159
f 211//160 218//160 219//160 212//160
f 214//34 221//34 222//34 215//34
f 213//161 220//161 221//161 214//161
f 216//162 223//162 224//162 217//162
f 212//163 219//163 220//163 213//163
f 215//164 222//164 223//164 216//164
f 222//165 229//165 230//165 223//165
f 218//166 225//166 226//166 219//166
f 221//65 228//65 229//65 222//65
f 220//167 227//167 228//167 221//167
f 223//168 230//168 231//168 224//168
f 219//169 226//169 227//169 220//169
f 226//170 233//170 234//170 227//170
f 229//171 236//171 237//171 230//171
f 225//172 232//172 233//172 226//172
f 228//21 235//21 236//21 229//21
f 227//173 234//173 235//173 228//173
f 230//174 237//174 238//174 231//174
f 234//175 241//175 242//175 235//175
f 237//176 244//176 245//176 238//176
f 233//177 240//177 241//177 234//177
f 236//178 243//178 244//178 237//178
f 232//179 239//179 240//179 233//179
f 235//34 242//34 243//34 236//34
f 241//180 248//180 249//180 242//180
f 244//181 251//181 252//181 245//181
f 240//182 247//182 248//182 241//182
f 243//183 250//183 251//183 244//183
f 239//184 246//184 247//184 240//184
f 242//34 249//34 250//34 243//34
f 249//13 256//13 257//13 250//13
f 248//185 255//185 256//185 249//185
f 251//186 258//186 259//186 252//186
f 247//187 254//187 255//187 248//187
f 250//188 257//188 258//188 251//188
f 246//189 253//189 254//189 247//189
